<svg xmlns="http://www.w3.org/2000/svg" viewBox="0 0 24 24" width="64" height="64">
  <g fill="#6f93e2">
    <path d="M3 3h18v2H3zM3 8h18v2H3zM3 13h18v2H3zM3 18h18v2H3z"/>
    <path d="M21.723 11.977l-1.404-1.404-2.097 2.097.482.482 1.616-1.615zM19.213 14.487l-.482-.482-1.616 1.616 1.404 1.404 2.097-2.098zM8.61 5.125c-.02.165-.06.329-.06.5s.04.335.06.5H3c-1.104 0-2 .896-2 2v8c0 1.104.896 2 2 2h2v1c0 .553.447 1 1 1h2c.553 0 1-.447 1-1v-1h8v1c0 .553.447 1 1 1h2c.553 0 1-.447 1-1v-1h2c1.104 0 2-.896 2-2v-8c0-1.104-.896-2-2-2H8.61zM4 14v-4h10v4H4zM20 12c-.553 0-1-.447-1-1s.447-1 1-1 1 .447 1 1-.447 1-1 1z"/>
  </g>
</svg>

